<?xml version="1.0" encoding="UTF-8"?>
<svg version="1.1" xmlns="http://www.w3.org/2000/svg" width="1024" height="1024">
<path d="M0 0 C8.12256266 6.38201352 14.27309832 13.84626806 16.203125 24.1484375 C17.38470346 34.96244904 15.39736411 44.42315984 8.625 53.0625 C4.28019687 58.13490174 0.63930003 60.62575713 -5.375 64.0625 C-5.375 81.8825 -5.375 99.7025 -5.375 118.0625 C6.34837891 118.11857422 6.34837891 118.11857422 18.30859375 118.17578125 C23.28973468 118.20609307 28.27084126 118.23726204 33.25195312 118.27148438 C41.14068775 118.32560274 49.02935444 118.37672006 56.91821289 118.40893555 C63.2855617 118.43513755 69.65267953 118.47565716 76.01988411 118.52568626 C78.43684049 118.54224148 80.8538367 118.55382578 83.2708416 118.56011391 C107.31714726 118.62894212 129.18713636 120.49111918 148.625 136.0625 C149.30691406 136.58199219 149.98882813 137.10148438 150.69140625 137.63671875 C163.07792671 147.64774213 173.16780524 163.90526321 175.40039062 179.78515625 C176.25046717 188.40419325 176.31548317 197.11444872 176.46728516 205.76855469 C176.37018475 208.02666491 176.37018475 208.02666491 177.625 209.0625 C179.38429597 209.17187945 181.14757586 209.21836752 182.91015625 209.23828125 C183.99876953 209.26212891 185.08738281 209.28597656 186.20898438 209.31054688 C188.50047078 209.35300563 190.79218991 209.38452867 193.08398438 209.40429688 C201.16149851 209.60825055 207.12986444 210.47538718 213 216.5 C216.13448686 221.44284466 216.87982816 225.29148341 216.91552734 231.14428711 C216.92560318 232.18431129 216.92560318 232.18431129 216.93588257 233.24534607 C216.95480945 235.52691909 216.95878377 237.80819722 216.9609375 240.08984375 C216.96736826 241.68258279 216.97409683 243.27532066 216.98110962 244.86805725 C216.99306845 248.20267475 216.9967918 251.53718875 216.99560547 254.87182617 C216.99540216 259.13678174 217.0227225 263.40107187 217.05714989 267.66586971 C217.07942591 270.95421883 217.08344283 274.24240783 217.08238602 277.53082466 C217.08474022 279.10285298 217.09355362 280.67488583 217.10905075 282.24683952 C217.12872975 284.44880239 217.12286725 286.64933056 217.11083984 288.85131836 C217.11368988 290.10198593 217.11653992 291.3526535 217.11947632 292.64122009 C216.32334841 298.14962632 213.26706721 301.88530328 209.0625 305.375 C208.48371094 305.86613281 207.90492188 306.35726563 207.30859375 306.86328125 C203.87410832 309.30965486 200.71350916 309.18000492 196.64453125 309.16015625 C195.48115234 309.15693359 194.31777344 309.15371094 193.11914062 309.15039062 C191.90419922 309.14201172 190.68925781 309.13363281 189.4375 309.125 C188.21095703 309.12048828 186.98441406 309.11597656 185.72070312 309.11132812 C182.68875332 309.09953065 179.65690094 309.08306921 176.625 309.0625 C176.63660156 309.96484375 176.64820313 310.8671875 176.66015625 311.796875 C177.18961671 371.98407101 177.18961671 371.98407101 156.75463867 393.03881836 C155.39166662 394.3938376 154.00873132 395.72868683 152.625 397.0625 C151.90699219 397.79984375 151.18898438 398.5371875 150.44921875 399.296875 C142.30247522 407.21348454 131.34997537 412.56046723 120.625 416.0625 C121.20688247 419.45067638 122.25048355 420.93654775 124.6875 423.3125 C134.5422279 434.41161309 138.39320003 448.82590876 142.47998047 462.77026367 C144.44114955 469.44676538 146.54875097 475.81166962 149.625 482.0625 C151.78890475 479.57400954 153.3838294 476.86288677 154.875 473.9375 C155.23078125 473.25429688 155.5865625 472.57109375 155.953125 471.8671875 C156.79951388 468.33400601 156.3648984 465.45885174 155.92675781 461.87695312 C153.14193099 435.9032609 157.57970427 412.00803503 173.625 391.0625 C176.49716001 387.59645308 179.51046123 384.31105507 182.625 381.0625 C183.67107422 379.92167969 183.67107422 379.92167969 184.73828125 378.7578125 C213.57116856 348.29088587 257.19721405 341.13983757 296.625 335.0625 C297.40782973 378.91903007 291.94961401 424.23885321 260.95703125 457.66015625 C242.90236898 476.2591802 215.91419204 491.01813999 189.625 493.0625 C187.85524305 493.03188498 186.08568208 492.98888087 184.31640625 492.9375 C174.71380063 492.30990103 174.71380063 492.30990103 165.89599609 495.23193359 C162.70325843 498.69428534 161.20502874 502.46126361 160.625 507.0625 C161.27532295 510.20985603 162.43957389 513.08280955 163.625 516.0625 C164.19292997 517.78986435 164.75929838 519.51774279 165.32421875 521.24609375 C168.21993338 530.39373828 168.21993338 530.39373828 174.47949219 537.10205078 C177.93989655 538.06159522 181.29912735 538.11075907 184.87109375 538.08203125 C191.18652285 538.04917262 195.31878882 540.48302581 199.75 544.8125 C203.82592705 550.00601995 205.6181324 556.47252325 207.75830078 562.63232422 C209.71610818 568.12190586 211.87947973 573.53793976 213.99755859 578.96728516 C214.32449707 579.81726074 214.65143555 580.66723633 214.98828125 581.54296875 C215.28001221 582.29473389 215.57174316 583.04649902 215.87231445 583.82104492 C217.98996292 590.12728253 217.98996292 590.12728253 216.625 593.625 C212.23722229 598.97260408 207.24451272 600.45763041 200.640625 601.27734375 C197.89331555 600.98451038 197.36511063 600.20523527 195.625 598.0625 C194.65716468 595.9078004 193.78020559 593.71154751 192.9609375 591.49609375 C192.72339752 590.86139664 192.48585754 590.22669952 192.24111938 589.57276917 C191.48633551 587.55129416 190.74289183 585.5258718 190 583.5 C189.24752409 581.47153445 188.49278173 579.44392552 187.73745728 577.41651917 C187.05478942 575.58041778 186.37760339 573.74228103 185.70068359 571.90405273 C184.71952298 569.16688892 184.71952298 569.16688892 183.625 567.0625 C178.55927705 567.64850908 174.08861419 568.73521569 169.25 570.4375 C168.02539062 570.85773437 166.80078125 571.27796875 165.5390625 571.7109375 C164.09660156 572.37996094 164.09660156 572.37996094 162.625 573.0625 C161.33416308 576.93501075 162.19269761 578.46729149 163.49609375 582.3046875 C163.90537109 583.53574219 164.31464844 584.76679687 164.73632812 586.03515625 C165.17749285 587.33624049 165.6195592 588.63701934 166.0625 589.9375 C166.92414361 592.47383832 167.77518454 595.012976 168.62109375 597.5546875 C169.00450928 598.68245605 169.3879248 599.81022461 169.78295898 600.97216797 C170.57731654 603.88749936 170.97140164 606.06909171 170.625 609.0625 C166.35600924 613.45704931 161.49952391 615.07274295 155.5 615.5625 C151.625 615.0625 151.625 615.0625 149.54394531 612.45654297 C146.63093887 607.30430181 144.87382478 601.84653463 143.05078125 596.24414062 C142.38537914 594.21908739 141.68592746 592.20807639 140.984375 590.1953125 C137.59140176 580.07873492 134.76550932 567.80269246 139.1875 557.5625 C141.34758173 553.95973595 144.37837648 551.15845969 147.52734375 548.41015625 C148.85935601 545.5612617 148.54299017 544.92320149 147.609375 542 C146.97342181 540.34414432 146.30978478 538.69876535 145.625 537.0625 C145.26092041 536.17296631 144.89684082 535.28343262 144.52172852 534.36694336 C143.35328395 531.56587761 142.15123388 528.78171545 140.9375 526 C140.52177734 525.03900391 140.10605469 524.07800781 139.67773438 523.08789062 C138.66348513 520.74462514 137.64585998 518.40289113 136.625 516.0625 C136.63660156 516.92488281 136.64820313 517.78726563 136.66015625 518.67578125 C136.6906848 522.8058579 136.67081851 526.9326658 136.625 531.0625 C136.61629883 532.18567627 136.61629883 532.18567627 136.60742188 533.33154297 C136.22811528 562.97435358 124.96466715 588.50271526 103.87304688 609.21972656 C98.80857544 614.04499658 93.50589846 618.26227029 87.625 622.0625 C86.76390625 622.65289063 85.9028125 623.24328125 85.015625 623.8515625 C78.69412645 627.9051788 72.21649375 630.47660981 65.125 632.875 C63.84423584 633.31017944 63.84423584 633.31017944 62.53759766 633.75415039 C51.85107217 637.19817319 41.3572584 638.36264057 30.16552734 638.3371582 C28.98324554 638.34226913 27.80096375 638.34738007 26.58285522 638.35264587 C22.70882984 638.36644396 18.83498441 638.365592 14.9609375 638.36328125 C12.92992883 638.36559722 10.89892444 638.36910161 8.86791766 638.372688 C2.48858726 638.38373488 -3.89068423 638.38424908 -10.27001953 638.37817383 C-16.80015217 638.37214938 -23.33006851 638.38441714 -29.86016428 638.4057439 C-35.50991146 638.4235012 -41.1595907 638.42933894 -46.80936468 638.42610615 C-50.16445246 638.42431412 -53.51926488 638.42807955 -56.87434769 638.44082069 C-87.43552499 638.54262037 -114.48613115 634.87270549 -138.375 614.0625 C-139.60669922 613.02996094 -139.60669922 613.02996094 -140.86328125 611.9765625 C-159.87146156 595.59937449 -174.42982199 571.93388529 -176.58886719 546.54785156 C-177.36585879 535.0656423 -177.50519306 523.56655943 -177.375 512.0625 C-177.66221924 512.75287354 -177.94943848 513.44324707 -178.24536133 514.15454102 C-179.55902644 517.31151942 -180.87325855 520.46826149 -182.1875 523.625 C-182.86522461 525.25405273 -182.86522461 525.25405273 -183.55664062 526.91601562 C-183.99814453 527.97626953 -184.43964844 529.03652344 -184.89453125 530.12890625 C-185.32209717 531.15709473 -185.74966309 532.1852832 -186.19018555 533.24462891 C-187.16775233 535.56959816 -188.17320942 537.8780664 -189.1953125 540.18359375 C-190.52007768 542.92979662 -190.52007768 542.92979662 -190.4375 545.5625 C-189.37591885 548.06033799 -188.38744074 549.23286804 -186.5625 551.1875 C-181.54914398 556.78211469 -179.07329555 563.21426429 -179.41015625 570.73046875 C-180.28718897 578.62309632 -182.92579015 586.08556364 -185.41259766 593.59057617 C-186.25683924 596.14569917 -187.07667475 598.70780942 -187.89453125 601.27148438 C-188.42565759 602.90150692 -188.95815951 604.53108204 -189.4921875 606.16015625 C-189.85798416 607.30690575 -189.85798416 607.30690575 -190.23117065 608.4768219 C-192.02967102 613.83228068 -192.02967102 613.83228068 -195.375 616.0625 C-201.08220072 617.03058533 -205.66198499 615.91639855 -210.74609375 613.328125 C-212.88692031 611.66474897 -213.52862645 610.66438422 -214.375 608.0625 C-213.84531458 605.48669406 -213.22397229 603.21374388 -212.3828125 600.7421875 C-212.15802216 600.0423172 -211.93323181 599.3424469 -211.70162964 598.62136841 C-210.98159441 596.38863318 -210.24156818 594.16316573 -209.5 591.9375 C-208.76974597 589.70352761 -208.04362636 587.46826891 -207.3197937 585.23220825 C-206.86815964 583.84175475 -206.41200832 582.45275893 -205.95095825 581.06539917 C-204.77145741 577.63681498 -204.77145741 577.63681498 -204.375 574.0625 C-207.10190077 572.91100828 -209.83128304 571.76617078 -212.5625 570.625 C-213.33142578 570.29951172 -214.10035156 569.97402344 -214.89257812 569.63867188 C-218.69890364 568.05406426 -222.26242747 566.64765561 -226.375 566.0625 C-226.76300781 567.26777344 -227.15101563 568.47304688 -227.55078125 569.71484375 C-229.67842304 576.09776913 -232.12959258 582.35358243 -234.5625 588.625 C-235.02591797 589.82447266 -235.48933594 591.02394531 -235.96679688 592.25976562 C-237.10102525 595.1947277 -238.23713485 598.1289464 -239.375 601.0625 C-248.91883772 601.49000847 -248.91883772 601.49000847 -252.75 598.75 C-253.37648438 598.32074219 -254.00296875 597.89148438 -254.6484375 597.44921875 C-255.21820313 596.99160156 -255.78796875 596.53398438 -256.375 596.0625 C-256.94476563 595.63582031 -257.51453125 595.20914063 -258.1015625 594.76953125 C-260.11014194 592.07704899 -259.77937795 590.37763623 -259.375 587.0625 C-258.3579778 583.87478504 -257.06610273 580.82435915 -255.75 577.75 C-253.29810352 571.88274959 -250.97987907 566.04349992 -249.0222168 559.9921875 C-246.1372166 551.13175346 -242.82520588 544.59804248 -234.6875 539.625 C-229.74903815 537.29553686 -226.10194863 536.94523051 -220.625 537 C-218.86929688 537.01353516 -218.86929688 537.01353516 -217.078125 537.02734375 C-216.18609375 537.03894531 -215.2940625 537.05054688 -214.375 537.0625 C-214.21354492 536.52520264 -214.05208984 535.98790527 -213.88574219 535.43432617 C-211.7166796 528.54807174 -208.6652858 522.29743394 -205.33984375 515.90429688 C-203.0128914 511.21628376 -201.64648768 508.26973375 -203.375 503.0625 C-205.03054269 498.43722093 -206.98433673 494.64834947 -210.375 491.0625 C-214.3548512 489.87827797 -218.12396679 490.07560995 -222.25 490.12597656 C-252.39717414 489.22544057 -282.67835067 471.78544404 -302.8671875 450.42578125 C-328.59886133 421.04678293 -338.14634998 379.33479075 -337.375 341.0625 C-322.30954055 340.31995271 -308.93228436 342.21892819 -294.375 346.0625 C-293.43253418 346.30355469 -292.49006836 346.54460937 -291.51904297 346.79296875 C-258.3001753 355.442345 -227.60722184 372.19500338 -209.375 402.0625 C-198.76387155 420.4836089 -194.99981554 441.91378428 -198.25 462.9375 C-198.75618213 467.33536814 -197.91749379 469.47180072 -195.4375 473.125 C-194.87160156 473.83785156 -194.30570313 474.55070312 -193.72265625 475.28515625 C-192.375 477.0625 -192.375 477.0625 -192.375 479.0625 C-191.385 479.0625 -190.395 479.0625 -189.375 479.0625 C-189.21427002 478.50812256 -189.05354004 477.95374512 -188.88793945 477.38256836 C-186.63446947 469.73220386 -184.12866722 462.17552842 -181.5625 454.625 C-181.14935547 453.37912109 -180.73621094 452.13324219 -180.31054688 450.84960938 C-176.69591666 440.23963934 -172.38997819 430.86348846 -165 422.375 C-164.55011719 421.85228516 -164.10023438 421.32957031 -163.63671875 420.79101562 C-162.55830333 419.54051263 -161.46802498 418.30025359 -160.375 417.0625 C-161.44814453 416.64291016 -161.44814453 416.64291016 -162.54296875 416.21484375 C-175.03240434 411.18998674 -185.84346187 405.70887593 -195.375 396.0625 C-196.07238281 395.38703125 -196.76976562 394.7115625 -197.48828125 394.015625 C-210.70881222 380.35868815 -216.34910639 361.70054167 -216.69140625 343.0703125 C-216.71218735 342.12437225 -216.73296844 341.17843201 -216.75437927 340.2038269 C-216.81947585 337.19845459 -216.87857336 334.19299899 -216.9375 331.1875 C-216.9807232 329.14322074 -217.02433868 327.09894974 -217.06835938 325.0546875 C-217.1751161 320.05737584 -217.27649471 315.05998084 -217.375 310.0625 C-218.54687866 310.04848145 -218.54687866 310.04848145 -219.74243164 310.03417969 C-223.30807764 309.98024688 -226.87244415 309.8966419 -230.4375 309.8125 C-231.66662109 309.79832031 -232.89574219 309.78414063 -234.16210938 309.76953125 C-242.12558355 309.55488235 -247.03870326 308.94234445 -253.08203125 303.53515625 C-257.30384625 298.14973146 -258.62455899 294.18427011 -258.63378906 287.36376953 C-258.6372937 286.71104065 -258.64079834 286.05831177 -258.64440918 285.38580322 C-258.6531749 283.23886314 -258.64739443 281.09225565 -258.640625 278.9453125 C-258.64197346 277.44465065 -258.64391551 275.94398922 -258.64642334 274.44332886 C-258.64936789 271.30120679 -258.64509976 268.15919864 -258.63574219 265.01708984 C-258.6243677 261.00351921 -258.63089855 256.99021669 -258.64288712 252.97665596 C-258.65014066 249.87785857 -258.64780146 246.77912391 -258.64263153 243.68032455 C-258.64130366 242.20125166 -258.64291231 240.72217294 -258.64759064 239.24310684 C-258.65271141 237.16859277 -258.64486791 235.09450234 -258.63378906 233.02001953 C-258.63219788 231.84263214 -258.63060669 230.66524475 -258.62896729 229.45217896 C-258.23998189 224.26042514 -257.43445845 220.28924137 -254 216.3125 C-248.21799453 211.35649531 -244.9501121 210.00870483 -237.296875 209.74609375 C-235.55664062 209.68325195 -235.55664062 209.68325195 -233.78125 209.61914062 C-232.5746875 209.57982422 -231.368125 209.54050781 -230.125 209.5 C-228.29195312 209.43522461 -228.29195312 209.43522461 -226.421875 209.36914062 C-223.4063608 209.26312645 -220.39076552 209.16106064 -217.375 209.0625 C-217.36041748 208.414021 -217.34583496 207.76554199 -217.33081055 207.09741211 C-216.72487756 182.91362016 -214.13266827 162.04997395 -197.125 143.625 C-196.2175 142.779375 -195.31 141.93375 -194.375 141.0625 C-193.38113281 140.06089844 -193.38113281 140.06089844 -192.3671875 139.0390625 C-181.12663773 128.16948797 -168.5402323 123.00898311 -153.375 120.0625 C-152.12189529 119.79712181 -152.12189529 119.79712181 -150.84347534 119.52638245 C-145.99401135 118.87780317 -141.20797616 118.93199906 -136.32080078 118.94897461 C-135.21777115 118.94882858 -134.11474152 118.94868256 -132.97828674 118.9485321 C-129.34227514 118.94922726 -125.70631513 118.95700109 -122.0703125 118.96484375 C-119.54540027 118.96670934 -117.02048767 118.96813258 -114.49557495 118.96913147 C-108.53525916 118.97255596 -102.57495985 118.98043281 -96.61465251 118.99048096 C-87.96780764 119.00474038 -79.32095646 119.00996089 -70.67410278 119.01628876 C-58.5743866 119.02597869 -46.47471856 119.04514306 -34.375 119.0625 C-34.375 100.9125 -34.375 82.7625 -34.375 64.0625 C-36.355 63.4025 -38.335 62.7425 -40.375 62.0625 C-49.22037004 55.77098116 -55.17804183 48.06236155 -57.08984375 37.296875 C-58.41911895 26.88118443 -56.46264693 16.72505636 -50.125 8.125 C-36.69187905 -7.4141611 -17.73939532 -10.18372695 0 0 Z " fill="#00B4B8" transform="translate(532.375,96.9375)"/>
<path d="M0 0 C0.72720778 -0.00523668 1.45441557 -0.01047336 2.20365995 -0.01586872 C4.61755551 -0.03075735 7.03123702 -0.0315714 9.44517517 -0.03224182 C11.18554538 -0.03987101 12.92591223 -0.0482998 14.66627502 -0.0574646 C19.37947465 -0.07934617 24.09260941 -0.08820038 28.80585408 -0.09329104 C31.75687307 -0.09694323 34.7078753 -0.10318786 37.65888786 -0.11029243 C47.97258621 -0.13476843 58.28623443 -0.14783407 68.59996033 -0.15138245 C78.18275668 -0.15501252 87.76523174 -0.18487484 97.34793001 -0.22678703 C105.59879929 -0.26159665 113.84956268 -0.27693276 122.10050482 -0.27762848 C127.01776102 -0.2784179 131.93468987 -0.28700069 136.85186958 -0.31562614 C141.48384473 -0.34198918 146.11522542 -0.34391139 150.74724197 -0.3279705 C152.43575918 -0.3261702 154.12431201 -0.33271658 155.81275368 -0.34878922 C174.01666783 -0.51134139 188.87901675 4.18068264 202.53086853 16.83665466 C217.24324369 32.27412304 219.9753601 49.68295521 219.90977478 70.10618591 C219.91502319 72.11194138 219.92130407 74.11769439 219.92855835 76.1234436 C219.93891364 80.30994856 219.93447286 84.4961126 219.91978455 88.68260193 C219.90262535 94.00469551 219.926083 99.32570643 219.96127415 104.64767933 C219.98340939 108.78571507 219.98176761 112.92349831 219.97350883 117.06157494 C219.97269771 119.0216611 219.97939754 120.98176742 219.99427986 122.94179726 C220.12452824 143.19950093 216.04179561 159.73672096 201.83164978 174.94993591 C187.35024806 188.47651994 169.51028121 191.7376017 150.43003845 191.6782074 C148.75804186 191.6839218 147.08604916 191.69089016 145.4140625 191.69900513 C140.90558824 191.71683556 136.39730969 191.71578709 131.88881087 191.71006274 C128.10942435 191.70695552 124.3300746 191.71308044 120.55069333 191.71910149 C111.62567784 191.73311253 102.70075813 191.7316146 93.77574158 191.72019958 C84.60415007 191.70872756 75.4328513 191.72278648 66.26129836 191.74959606 C58.35428487 191.77183387 50.44736272 191.77837214 42.54032022 191.77251965 C37.83222043 191.76916743 33.12430811 191.77144837 28.41623497 191.78877068 C23.98451186 191.80436678 19.55321837 191.80014571 15.12151146 191.78146553 C13.50718257 191.77781408 11.89282094 191.78078584 10.27852249 191.79135132 C-8.30368046 191.9035625 -25.4888593 187.84424172 -39.42103577 174.72288513 C-51.23188784 162.98853583 -56.77975889 148.93435564 -56.83363342 132.46751404 C-56.84020462 131.59033722 -56.84677582 130.7131604 -56.85354614 129.80940247 C-56.87322098 126.91223554 -56.88493162 124.01512043 -56.89491272 121.11790466 C-56.89898825 120.12372025 -56.90306377 119.12953583 -56.9072628 118.10522461 C-56.92810335 112.83829458 -56.94241122 107.57139041 -56.95179749 102.3044281 C-56.96283016 96.8923429 -56.99719967 91.48067243 -57.03696918 86.06873322 C-57.06325229 81.88368522 -57.07149988 77.69873408 -57.07507896 73.51361084 C-57.07991832 71.52032688 -57.09145558 69.52704647 -57.11011696 67.53384399 C-57.28617554 47.47522054 -53.59741007 31.79160844 -39.29335022 16.78196716 C-28.50528626 6.52131967 -14.99041757 0.05390944 0 0 Z " fill="#65E0E0" transform="translate(430.65663146972656,278.72584533691406)"/>
<path d="M0 0 C0.76774559 -0.00367669 1.53549118 -0.00735338 2.32650179 -0.01114148 C4.8894226 -0.02212119 7.45230278 -0.02601242 10.01524353 -0.02983093 C11.85708239 -0.03609996 13.69891999 -0.04274715 15.54075623 -0.04974365 C21.5816409 -0.07073632 27.62252569 -0.0811424 33.66343689 -0.09111023 C35.74770559 -0.09515975 37.83197416 -0.09927673 39.9162426 -0.10346031 C49.71130188 -0.12250241 59.50635368 -0.13673482 69.3014279 -0.14507228 C80.58595747 -0.15483765 91.87029052 -0.18114309 103.15475088 -0.22157317 C111.89131012 -0.25179404 120.62781322 -0.26654686 129.36442369 -0.26985329 C134.57558865 -0.27219716 139.78654344 -0.28107099 144.99765205 -0.30631447 C149.90529262 -0.32970452 154.81258625 -0.33378469 159.72026825 -0.32355309 C161.51282599 -0.32306025 163.30540145 -0.32930559 165.09790611 -0.34310913 C182.00015552 -0.46589462 196.31653912 2.46265351 209.00328064 14.45967102 C217.52272979 23.43068108 220.49512562 32.99636588 220.48130798 45.17085266 C220.48802521 46.0355014 220.49474243 46.90015015 220.50166321 47.79100037 C220.52055027 50.62983567 220.52456334 53.46843316 220.52671814 56.30732727 C220.53315477 58.30020237 220.53988376 60.29307653 220.54689026 62.28594971 C220.5588415 66.45935757 220.56257353 70.63268281 220.56138611 74.80610657 C220.56118357 80.11593239 220.58842845 85.42521912 220.62293053 90.73491764 C220.64533471 94.85228841 220.64921946 98.96953249 220.64816666 103.08695793 C220.65050453 105.04229519 220.65922391 106.99763692 220.67483139 108.95291328 C220.85444056 133.78771162 213.82430518 153.59765486 196.63218689 171.86592102 C180.08425058 187.79914945 159.49431588 195.48812216 136.66368103 195.40596008 C134.84456963 195.41121704 134.84456963 195.41121704 132.9887085 195.4165802 C129.69109139 195.42382909 126.39363723 195.42219351 123.09602284 195.41582203 C119.62585083 195.41071859 116.15568884 195.41546556 112.68551636 195.41859436 C106.85953348 195.42222193 101.03360148 195.4174673 95.20762634 195.40791321 C88.49793924 195.3970361 81.78837378 195.4005537 75.07868963 195.41156602 C69.29151696 195.42067963 63.50438063 195.42190421 57.71720308 195.41668868 C54.27239679 195.41359061 50.82764743 195.41309935 47.38284492 195.41976166 C43.53757258 195.42486969 39.69253011 195.41705626 35.84727478 195.40596008 C34.72434021 195.41000854 33.60140564 195.41405701 32.44444275 195.41822815 C8.84735079 195.2927826 -9.31040272 185.41458771 -25.80921936 169.14717102 C-26.92490295 168.05082336 -26.92490295 168.05082336 -28.06312561 166.93232727 C-40.44772135 153.91759555 -47.9286562 136.09708451 -47.98622131 118.2011261 C-47.99279251 117.30937683 -47.99936371 116.41762756 -48.00613403 115.49885559 C-48.02580458 112.55480353 -48.03751619 109.61080235 -48.04750061 106.66670227 C-48.05157614 105.65774084 -48.05565166 104.64877941 -48.05985069 103.60924339 C-48.08068559 98.26796551 -48.09499804 92.92671312 -48.10438538 87.58540344 C-48.11543977 82.08558829 -48.14983616 76.58617881 -48.18955708 71.08650684 C-48.21577627 66.84238971 -48.22408196 62.59836846 -48.22766685 58.35417747 C-48.23251966 56.32771251 -48.24409613 54.30125144 -48.26270485 52.2748661 C-48.43779953 31.94321372 -48.43779953 31.94321372 -43.80921936 24.14717102 C-43.19820374 23.1030304 -42.58718811 22.05888977 -41.95765686 20.98310852 C-41.37242249 20.17099915 -40.78718811 19.35888977 -40.18421936 18.52217102 C-39.59382874 17.6842804 -39.00343811 16.84638977 -38.39515686 15.98310852 C-37.87179749 15.37724915 -37.34843811 14.77138977 -36.80921936 14.14717102 C-36.14921936 14.14717102 -35.48921936 14.14717102 -34.80921936 14.14717102 C-34.80921936 13.48717102 -34.80921936 12.82717102 -34.80921936 12.14717102 C-24.20691012 3.96363955 -13.31453275 -0.00346198 0 0 Z " fill="#65E0E0" transform="translate(425.80921936035156,517.8528289794922)"/>
<path d="M0 0 C0.05012236 5.01300667 0.08605439 10.02586167 0.10986328 15.0390625 C0.11980786 16.73798164 0.13336831 18.43688419 0.15087891 20.13574219 C0.28528834 33.52924711 -0.23297114 46.50073094 -4.125 59.4375 C-4.33600342 60.14140869 -4.54700684 60.84531738 -4.7644043 61.57055664 C-8.503491 73.33609313 -14.67187433 83.88407866 -23 93 C-23.46535156 93.51304687 -23.93070313 94.02609375 -24.41015625 94.5546875 C-31.8556397 102.66664645 -39.25394707 108.75116172 -49 114 C-50.22589844 114.70189453 -50.22589844 114.70189453 -51.4765625 115.41796875 C-66.14809374 123.39162703 -82.32653874 126.13000357 -98.8125 126.25 C-100.29955444 126.2641394 -100.29955444 126.2641394 -101.81665039 126.27856445 C-107.26990626 126.2541517 -111.84705621 125.81107648 -117 124 C-115.42273741 117.83433717 -112.03594813 112.90985566 -108.625 107.625 C-107.99795166 106.64909912 -107.37090332 105.67319824 -106.72485352 104.66772461 C-91.40912141 81.07185829 -73.15733921 59.44163728 -51 42 C-48.06781811 39.55526523 -45.13902487 37.1066421 -42.21484375 34.65234375 C-40 33 -40 33 -38 33 C-38 32.34 -38 31.68 -38 31 C-77.82165588 49.67498345 -105.07650541 78.65685375 -129 115 C-134.43221006 106.8516849 -131.90529787 89.65241306 -130.34765625 80.21875 C-125.21814289 55.89028484 -110.11174878 34.32727776 -90 20 C-62.29139522 2.06701741 -32.22887293 -0.50908305 0 0 Z " fill="#005C61" transform="translate(557,563)"/>
<path d="M0 0 C6.56658462 3.68665583 12.51515962 8.99629335 15.1875 16.26171875 C17.22631165 26.69242476 16.10387352 35.61373197 10.375 44.421875 C6.52706228 49.5378831 1.7601918 52.7099119 -4.375 54.5 C-13.753519 55.66993695 -22.58565784 55.47786724 -30.375 49.5 C-37.05673642 43.57468657 -40.65549542 37.70231167 -41.68359375 28.83984375 C-42.06957548 20.52369182 -39.83842386 13.4462168 -34.875 6.75 C-25.47315932 -3.17023791 -12.27892793 -5.57297976 0 0 Z " fill="#00595E" transform="translate(595.375,330.5)"/>
<path d="M0 0 C6.94267351 3.95720682 12.9800703 9.50751936 15.31640625 17.3203125 C16.58144293 25.84946121 16.48678934 34.70301707 11.9296875 42.23828125 C7.34184817 48.15914896 1.84016505 52.99259036 -5.68359375 54.3203125 C-14.39916871 55.21939286 -22.14125741 55.48995074 -29.56640625 50.15234375 C-36.61216238 44.05555477 -40.90523635 38.27071516 -41.9609375 28.84375 C-42.29461802 20.22144547 -39.946803 12.9389799 -34.56640625 6.1796875 C-25.05261037 -3.21567939 -12.15148688 -5.57837119 0 0 Z " fill="#00595E" transform="translate(453.68359375,330.6796875)"/>
<path d="M0 0 C28.76475552 3.94915011 65.09497923 42.72558883 82 64 C83.56147755 65.87585157 85.12397326 67.75085609 86.6875 69.625 C97 82.23519737 97 82.23519737 97 86 C98.485 86.495 98.485 86.495 100 87 C96.57712062 96.11758137 92.89382182 105.07498571 89 114 C86.4081181 110.76211714 84.49588476 107.35188848 82.5625 103.6875 C81.38146777 101.45489992 80.19377492 99.2258126 79 97 C78.08541016 95.27910156 78.08541016 95.27910156 77.15234375 93.5234375 C74.88347653 89.58822608 72.02269129 86.30977878 69 82.9375 C67.83676188 81.61891086 66.67401266 80.29989026 65.51171875 78.98046875 C64.92567871 78.31837402 64.33963867 77.6562793 63.73583984 76.97412109 C61.05896673 73.92978973 58.43816511 70.83846374 55.8125 67.75 C52.21741433 63.53450526 48.56237718 59.39222749 44.8125 55.3125 C41.60354956 51.81740111 38.53934163 48.2571616 35.5625 44.5625 C32.34051882 40.56769794 28.99288928 36.75502207 25.5 33 C20.41723849 27.52227343 15.65330122 21.84566126 11 16 C9.99869962 14.75650904 8.99739744 13.51301954 7.99609375 12.26953125 C6.97592235 10.99269871 5.95638343 9.71536055 4.9375 8.4375 C4.44765625 7.82922363 3.9578125 7.22094727 3.453125 6.59423828 C0 2.22959712 0 2.22959712 0 0 Z " fill="#00585D" transform="translate(243,490)"/>
<path d="M0 0 C-1.33999498 3.006818 -2.79845291 4.99762609 -5.1875 7.25 C-8.32265223 10.29483921 -11.20770711 13.46725389 -14.05859375 16.77734375 C-16.28804061 19.32976883 -18.58001382 21.81887514 -20.875 24.3125 C-41.39225195 46.86605064 -58.90314748 72.17746298 -75 98 C-68.07 98.33 -61.14 98.66 -54 99 C-54 99.33 -54 99.66 -54 100 C-54.6297876 99.96221436 -55.2595752 99.92442871 -55.90844727 99.88549805 C-67.34978246 98.82296712 -67.34978246 98.82296712 -77.72900391 102.32324219 C-80.47619531 105.80946237 -81.84734992 109.72806489 -83 114 C-86 113 -86 113 -87.13842773 111.22509766 C-95.20502809 93.38850831 -95.20502809 93.38850831 -92.6875 86.625 C-91.35546875 84.12890625 -91.35546875 84.12890625 -90 82 C-89.505 80.865625 -89.01 79.73125 -88.5 78.5625 C-87 76 -87 76 -85.1796875 74.2890625 C-82.45315309 71.42571275 -80.61306113 68.19939959 -78.625 64.8125 C-62.87656401 38.90744235 -40.68278713 19.10661065 -14 5 C-13.02804687 4.4740625 -12.05609375 3.948125 -11.0546875 3.40625 C-4.56388889 0 -4.56388889 0 0 0 Z " fill="#00595E" transform="translate(776,490)"/>
<path d="M0 0 C2.40315042 2.32274762 4.48153679 4.82715886 6.625 7.390625 C14.46023704 15.99907622 27.66457184 20.55253007 39.12890625 21.16796875 C54.47723563 21.25527438 68.85739035 19.09684389 81 9 C82.40377961 7.39979601 83.77887705 5.77400061 85.125 4.125 C88.53095959 0.10162542 88.53095959 0.10162542 92.75 -0.8125 C96.55114116 0.13778529 97.91750878 0.66801405 100 4 C100.67871901 8.07231403 100.83037204 10.43314958 98.89453125 14.0859375 C89.0945125 27.80070904 73.29062011 35.18568367 57 38 C34.77423933 39.49894665 14.22853604 36.75416664 -3.1875 21.875 C-7.48827522 17.7040595 -11.12126204 14.09548415 -11.5 7.875 C-11 4 -11 4 -9.4375 1.5 C-5.76738872 -0.75853002 -4.25864738 -0.97739448 0 0 Z " fill="#014041" transform="translate(467,410)"/>
<path d="M0 0 C0 0.66 0 1.32 0 2 C-1.82165781 3.51446425 -3.65164444 4.91805487 -5.5625 6.3125 C-17.93254733 15.59818837 -29.25126559 25.89097282 -40 37 C-40 34 -40 34 -37.8125 31.51953125 C-36.884375 30.62621094 -35.95625 29.73289062 -35 28.8125 C-34.071875 27.91144531 -33.14375 27.01039063 -32.1875 26.08203125 C-31.465625 25.39496094 -30.74375 24.70789063 -30 24 C-30.33 23.01 -30.66 22.02 -31 21 C-32.98 21.33 -34.96 21.66 -37 22 C-32.95737761 17.54667295 -28.52905562 14.62119265 -23.375 11.5625 C-22.57827881 11.08385498 -21.78155762 10.60520996 -20.96069336 10.11206055 C-4.03983395 0 -4.03983395 0 0 0 Z " fill="#6DE7E7" transform="translate(519,594)"/>
<path d="M0 0 C8.58 0 17.16 0 26 0 C26.33 0.99 26.66 1.98 27 3 C17.76 3 8.52 3 -1 3 C-0.67 2.01 -0.34 1.02 0 0 Z " fill="#008A8F" transform="translate(701,586)"/>
<path d="M0 0 C1.53878156 10.96381862 1.53878156 22.03618138 0 33 C-0.33 33 -0.66 33 -1 33 C-2.11373111 27.68367414 -2.08172679 22.58555471 -2 17.1875 C-1.97461462 15.47271759 -1.95353955 13.75786404 -1.9375 12.04296875 C-1.92589844 11.29039795 -1.91429687 10.53782715 -1.90234375 9.76245117 C-1.80501463 7.9726842 -1.80501463 7.9726842 -3 7 C-3.04080783 5.00041636 -3.04254356 2.99954746 -3 1 C-1 0 -1 0 0 0 Z " fill="#01A7AA" transform="translate(334,530)"/>
<path d="M0 0 C2.99086407 1.13325709 5.87843215 2.4019266 8.75 3.8046875 C17.36649688 8.01111843 25.70059308 11.541722 35 14 C35 14.33 35 14.66 35 15 C22.37073024 14.55686773 10.71054522 8.27936331 0 2 C0 1.34 0 0.68 0 0 Z " fill="#02C5CB" transform="translate(256,567)"/>
<path d="M0 0 C0.33 0 0.66 0 1 0 C2.05658131 4.09425259 2.048544 7.91746389 1.9375 12.109375 C1.78485355 14.01263957 1.78485355 14.01263957 3 15 C4.85174706 15.15786308 6.7090911 15.25107356 8.56640625 15.31640625 C10.2534668 15.37924805 10.2534668 15.37924805 11.97460938 15.44335938 C13.15861328 15.48267578 14.34261719 15.52199219 15.5625 15.5625 C16.75037109 15.60568359 17.93824219 15.64886719 19.16210938 15.69335938 C22.10794784 15.79983546 25.0538743 15.90184841 28 16 C28 16.33 28 16.66 28 17 C23.52084672 17.02886338 19.04171709 17.04675187 14.5625 17.0625 C13.28310547 17.07087891 12.00371094 17.07925781 10.68554688 17.08789062 C8.86313477 17.09272461 8.86313477 17.09272461 7.00390625 17.09765625 C5.87799072 17.10289307 4.7520752 17.10812988 3.59204102 17.11352539 C1 17 1 17 0 16 C-0.07319621 13.30345146 -0.09242537 10.63308542 -0.0625 7.9375 C-0.05798828 7.17888672 -0.05347656 6.42027344 -0.04882812 5.63867188 C-0.0370068 3.75908129 -0.01907078 1.87953101 0 0 Z " fill="#029C9F" transform="translate(707,291)"/>
<path d="M0 0 C1 4 1 4 1.1875 6.3125 C2.2279643 9.75403576 4.09242352 11.66343829 6.52734375 14.25390625 C9.77216488 18.10121406 10.22697367 21.00657917 10 26 C9.72800781 25.44441406 9.45601563 24.88882813 9.17578125 24.31640625 C7.90707721 21.81693285 6.57866891 19.37112794 5.1875 16.9375 C4.70667969 16.08027344 4.22585938 15.22304688 3.73046875 14.33984375 C1.77834311 11.70028786 -0.10715847 10.49799094 -3 9 C-2.01 6.03 -1.02 3.06 0 0 Z " fill="#02C3C8" transform="translate(341,636)"/>
<path d="M0 0 C2.08304538 -0.05418326 4.16649768 -0.09287551 6.25 -0.125 C7.99023438 -0.15980469 7.99023438 -0.15980469 9.765625 -0.1953125 C12.82786046 -0.0103949 14.44202751 0.39176977 17 2 C15.02 2.99 13.04 3.98 11 5 C11 4.34 11 3.68 11 3 C10.37351562 3.01160156 9.74703125 3.02320312 9.1015625 3.03515625 C8.28429687 3.04417969 7.46703125 3.05320312 6.625 3.0625 C5.81289063 3.07410156 5.00078125 3.08570312 4.1640625 3.09765625 C2 3 2 3 0 2 C0 1.34 0 0.68 0 0 Z " fill="#01ABAF" transform="translate(505,91)"/>
<path d="M0 0 C0 0.66 0 1.32 0 2 C-1.64453125 3.54296875 -1.64453125 3.54296875 -3.8125 5.1875 C-4.52019531 5.73792969 -5.22789062 6.28835938 -5.95703125 6.85546875 C-6.63121094 7.23316406 -7.30539062 7.61085938 -8 8 C-8.99 7.67 -9.98 7.34 -11 7 C-13.14255793 7.38932856 -13.14255793 7.38932856 -15 8 C-12.73762373 5.52733876 -10.42546667 3.936134 -7.5 2.3125 C-6.33984375 1.65701172 -6.33984375 1.65701172 -5.15625 0.98828125 C-3 0 -3 0 0 0 Z " fill="#75EBEA" transform="translate(519,594)"/>
<path d="M0 0 C0.83707887 2.77139985 1.09922027 3.7195949 0.1015625 6.5390625 C-1.46252388 11.45317787 -1.46617855 16.24639052 -1.625 21.375 C-1.66367187 22.39722656 -1.70234375 23.41945313 -1.7421875 24.47265625 C-1.83597964 26.98159597 -1.92167879 29.49053764 -2 32 C-2.33 32 -2.66 32 -3 32 C-3.08816905 28.35432287 -3.14077948 24.70892526 -3.1875 21.0625 C-3.21263672 20.04091797 -3.23777344 19.01933594 -3.26367188 17.96679688 C-3.32659512 11.40180496 -2.5512675 6.0660915 0 0 Z " fill="#00A2A5" transform="translate(708,417)"/>
<path d="M0 0 C2 2 2 2 2.23046875 5.1875 C2.20919922 7.0746875 2.20919922 7.0746875 2.1875 9 C2.18105469 10.258125 2.17460938 11.51625 2.16796875 12.8125 C2 16 2 16 1 18 C0.34 18 -0.32 18 -1 18 C-1.33 18.66 -1.66 19.32 -2 20 C-1.85879984 17.41633755 -1.71221667 14.83317115 -1.5625 12.25 C-1.52318359 11.52039063 -1.48386719 10.79078125 -1.44335938 10.0390625 C-1.23852902 6.5727027 -0.9147998 3.34666974 0 0 Z " fill="#56D0D1" transform="translate(612,348)"/>
<path d="M0 0 C-4.65285818 3.10190545 -9.41532676 4.33846504 -15 4 C-14.67 3.01 -14.34 2.02 -14 1 C-8.87990851 -0.73562423 -5.33881404 -1.33470351 0 0 Z " fill="#008990" transform="translate(743,584)"/>
<path d="M0 0 C1.5 1.375 1.5 1.375 3 3 C3 3.66 3 4.32 3 5 C4.32 5 5.64 5 7 5 C7.6875 6.75 7.6875 6.75 8 9 C6.51953125 11.140625 6.51953125 11.140625 5 13 C4.15930585 11.39967863 3.32768495 9.79458829 2.5 8.1875 C1.80390625 6.84751953 1.80390625 6.84751953 1.09375 5.48046875 C0 3 0 3 0 0 Z " fill="#016E73" transform="translate(326,591)"/>
<path d="M0 0 C0.66 0.33 1.32 0.66 2 1 C1.67 3.64 1.34 6.28 1 9 C0.34 9 -0.32 9 -1 9 C-1.2475 10.27875 -1.495 11.5575 -1.75 12.875 C-2.70496485 16.79173989 -2.70496485 16.79173989 -5.125 18.5 C-6.053125 18.7475 -6.053125 18.7475 -7 19 C-6.07361787 16.61787452 -5.16764006 14.30569658 -3.9375 12.0625 C-2.85232085 9.91099567 -2.85232085 9.91099567 -2.5 7 C-2.03970966 4.23825797 -1.38489597 2.40048634 0 0 Z " fill="#5ED8D9" transform="translate(569,412)"/>
<path d="M0 0 C0.33 0.99 0.66 1.98 1 3 C-0.3567482 5.3632729 -1.72775351 7.48791953 -3.3125 9.6875 C-3.72951172 10.29400391 -4.14652344 10.90050781 -4.57617188 11.52539062 C-5.65862011 13.06015375 -6.82397149 14.53570872 -8 16 C-8.66 16 -9.32 16 -10 16 C-8.31029911 12.33601701 -6.12699789 9.09167428 -3.875 5.75 C-3.15054688 4.67234375 -2.42609375 3.5946875 -1.6796875 2.484375 C-0.84824219 1.25460937 -0.84824219 1.25460937 0 0 Z " fill="#02C1C5" transform="translate(653,681)"/>
<path d="M0 0 C1.32 0.33 2.64 0.66 4 1 C4.99 4.63 5.98 8.26 7 12 C3 10 3 10 1.8125 7.125 C1.544375 6.09375 1.27625 5.0625 1 4 C0.79375 3.21625 0.5875 2.4325 0.375 1.625 C0.25125 1.08875 0.1275 0.5525 0 0 Z " fill="#02A5A8" transform="translate(695,688)"/>
<path d="M0 0 C0.33 0 0.66 0 1 0 C1 1.98 1 3.96 1 6 C0.2575 6.268125 -0.485 6.53625 -1.25 6.8125 C-3.86636554 7.94229421 -5.80187111 9.20893202 -8 11 C-6.64199529 8.03469503 -5.07571737 5.70868729 -2.9375 3.25 C-2.41027344 2.63640625 -1.88304687 2.0228125 -1.33984375 1.390625 C-0.89769531 0.93171875 -0.45554687 0.4728125 0 0 Z " fill="#73EAEA" transform="translate(539,649)"/>
<path d="M0 0 C0.33 0 0.66 0 1 0 C1.32613618 4.67461851 0.70582788 7.16674383 -2 11 C-3.25 9.4375 -3.25 9.4375 -4 7 C-2.93237266 4.42998985 -1.53455057 2.3469597 0 0 Z " fill="#01AAAD" transform="translate(361,528)"/>
<path d="M0 0 C-2.75 3.875 -2.75 3.875 -5 5 C-6.67654729 4.72057545 -8.34608154 4.39171753 -10 4 C-7.39928297 0.98864344 -3.94054294 -1.97027147 0 0 Z " fill="#6CE5E5" transform="translate(548,441)"/>
<path d="M0 0 C0 0.66 0 1.32 0 2 C-3.37097383 3.49821059 -5.20442119 4 -9 4 C-9 3.01 -9 2.02 -9 1 C-2.25 -1.125 -2.25 -1.125 0 0 Z " fill="#5EDADA" transform="translate(510,601)"/>
<path d="M0 0 C0.66 0.33 1.32 0.66 2 1 C1.34 1.66 0.68 2.32 0 3 C0 3.99 0 4.98 0 6 C-0.66 6.66 -1.32 7.32 -2 8 C-2.99 8 -3.98 8 -5 8 C-3.8141763 4.62496331 -2.72426311 2.35277269 0 0 Z " fill="#01C7C9" transform="translate(369,518)"/>
<path d="M0 0 C0.66 0.33 1.32 0.66 2 1 C0.70984254 2.62619848 -0.58217697 4.25091983 -1.875 5.875 C-2.95394531 7.23238281 -2.95394531 7.23238281 -4.0546875 8.6171875 C-6 11 -6 11 -8 13 C-7.48118887 8.8275894 -6.28848726 6.74583179 -3.4375 3.6875 C-2.79683594 2.99011719 -2.15617187 2.29273438 -1.49609375 1.57421875 C-1.00238281 1.05472656 -0.50867188 0.53523437 0 0 Z " fill="#02C8CC" transform="translate(335,241)"/>
<path d="M0 0 C0.33 0.66 0.66 1.32 1 2 C1.66 2 2.32 2 3 2 C3.05391993 3.79133978 3.09275571 5.58313899 3.125 7.375 C3.14820313 8.37273437 3.17140625 9.37046875 3.1953125 10.3984375 C3 13 3 13 1 15 C0.67 10.05 0.34 5.1 0 0 Z " fill="#00ACAE" transform="translate(524,177)"/>
<path d="M0 0 C3.95820859 0.56545837 6.6659053 1.80902348 10 4 C7.50907189 5.24546405 6.58919267 4.7767578 4 4 C4 4.99 4 5.98 4 7 C0 2.25 0 2.25 0 0 Z " fill="#00444A" transform="translate(243,490)"/>
<path d="M0 0 C3.63 0 7.26 0 11 0 C11 0.66 11 1.32 11 2 C7.25 3.125 7.25 3.125 5 2 C4.67 2.66 4.34 3.32 4 4 C2.35 3.67 0.7 3.34 -1 3 C-0.67 2.01 -0.34 1.02 0 0 Z " fill="#5BDADA" transform="translate(524,447)"/>
<path d="M0 0 C1.04005702 3.38018531 1.08004482 6.4780279 1 10 C0.01 9.67 -0.98 9.34 -2 9 C-2.875 7.25 -2.875 7.25 -3 5 C-1.5625 2.25 -1.5625 2.25 0 0 Z " fill="#00686D" transform="translate(685,577)"/>
<path d="M0 0 C-1.49097658 3.7952131 -3.75700849 5.61042731 -7 8 C-6.67 7.360625 -6.34 6.72125 -6 6.0625 C-4.92728775 4.23205433 -4.92728775 4.23205433 -5 3 C-5.66 2.67 -6.32 2.34 -7 2 C-4 0 -4 0 0 0 Z " fill="#00464B" transform="translate(776,490)"/>
<path d="M0 0 C0.66 0.99 1.32 1.98 2 3 C0.35 4.32 -1.3 5.64 -3 7 C-3.66 6.67 -4.32 6.34 -5 6 C-4.67 4.68 -4.34 3.36 -4 2 C-3.34 2 -2.68 2 -2 2 C-1.34 1.34 -0.68 0.68 0 0 Z " fill="#5BD3D4" transform="translate(549,414)"/>
<path d="M0 0 C0.66 0 1.32 0 2 0 C2 0.66 2 1.32 2 2 C2.99 2.33 3.98 2.66 5 3 C5.6875 5.0625 5.6875 5.0625 6 7 C5.01 7.33 4.02 7.66 3 8 C0 2.25 0 2.25 0 0 Z " fill="#01ABAE" transform="translate(364,671)"/>
<path d="M0 0 C0.66 0.33 1.32 0.66 2 1 C0.10595266 4.34243648 -0.94091591 4.97997149 -4.6875 6.25 C-6.3271875 6.62125 -6.3271875 6.62125 -8 7 C-5.42215154 4.35247996 -3.08351902 2.05567935 0 0 Z " fill="#73EAEA" transform="translate(490,609)"/>
<path d="M0 0 C0.99 0 1.98 0 3 0 C3.25 7.5 3.25 7.5 1 12 C0.67 8.04 0.34 4.08 0 0 Z " fill="#59D4D6" transform="translate(556,600)"/>
<path d="M0 0 C0 3 0 3 -1.3125 4.60546875 C-1.869375 5.12753906 -2.42625 5.64960937 -3 6.1875 C-3.556875 6.71730469 -4.11375 7.24710938 -4.6875 7.79296875 C-5.120625 8.19128906 -5.55375 8.58960938 -6 9 C-6.66 8.67 -7.32 8.34 -8 8 C-6.6106395 4.52659875 -5.38754843 3.48205244 -2 2 C-1.34 1.34 -0.68 0.68 0 0 Z " fill="#59D7D9" transform="translate(536,655)"/>
<path d="M0 0 C1 2 1 2 0.375 4 C-1.39265071 6.57112831 -3.07589059 7.07659703 -6 8 C-4.26440562 4.942048 -2.61527381 2.36620011 0 0 Z " fill="#5CD9DA" transform="translate(460,637)"/>
<path d="M0 0 C-2 1.33333333 -4 2.66666667 -6 4 C-6.66 4.66 -7.32 5.32 -8 6 C-8.66 6 -9.32 6 -10 6 C-9.1875 3.5625 -9.1875 3.5625 -8 1 C-5.07175348 0.02391783 -3.04386724 -0.08226668 0 0 Z " fill="#5CD9DA" transform="translate(561,407)"/>
<path d="M0 0 C0.99 0.99 1.98 1.98 3 3 C3.66 2.67 4.32 2.34 5 2 C5.33 2.99 5.66 3.98 6 5 C5.01 6.485 5.01 6.485 4 8 C3.67 7.34 3.34 6.68 3 6 C2.01 6 1.02 6 0 6 C0 4.02 0 2.04 0 0 Z " fill="#00A9AA" transform="translate(692,248)"/>
<path d="M0 0 C0.66 1.32 1.32 2.64 2 4 C2.99 4 3.98 4 5 4 C4.67 5.98 4.34 7.96 4 10 C1.7448078 7.7448078 1.02276532 5.9952413 0 3 C0 2.01 0 1.02 0 0 Z " fill="#01ABAF" transform="translate(739,666)"/>
<path d="M0 0 C0.66 0 1.32 0 2 0 C2.66 1.98 3.32 3.96 4 6 C3.01 6.33 2.02 6.66 1 7 C0.67 4.69 0.34 2.38 0 0 Z " fill="#02A3A6" transform="translate(323,502)"/>
<path d="M0 0 C0.99 0 1.98 0 3 0 C2.67 2.31 2.34 4.62 2 7 C1.01 6.67 0.02 6.34 -1 6 C-0.67 4.02 -0.34 2.04 0 0 Z " fill="#02A9AD" transform="translate(820,495)"/>
<path d="M0 0 C3.79588866 0.54226981 5.47211993 2.20127563 8 5 C6.35 5 4.7 5 3 5 C3 4.01 3 3.02 3 2 C2.01 1.67 1.02 1.34 0 1 C0 0.67 0 0.34 0 0 Z " fill="#01C6C8" transform="translate(290,467)"/>
<path d="M0 0 C-0.33 1.32 -0.66 2.64 -1 4 C-2.32 4.33 -3.64 4.66 -5 5 C-5.33 4.01 -5.66 3.02 -6 2 C-2.25 0 -2.25 0 0 0 Z " fill="#01A8AB" transform="translate(753,452)"/>
<path d="M0 0 C-1.32 1.32 -2.64 2.64 -4 4 C-4.99 3.67 -5.98 3.34 -7 3 C-6.67 2.01 -6.34 1.02 -6 0 C-3.42525708 -0.99667468 -2.51072708 -1.25536354 0 0 Z " fill="#00A9AB" transform="translate(285,312)"/>
<path d="M0 0 C0.66 0 1.32 0 2 0 C3.85776765 3.13498292 4.20140476 5.37471432 4 9 C3.34 8.01 2.68 7.02 2 6 C1.00612666 4.66209359 0.0073108 3.32781878 -1 2 C-0.67 1.34 -0.34 0.68 0 0 Z " fill="#01C2C6" transform="translate(542,109)"/>
<path d="M0 0 C0.66 0.33 1.32 0.66 2 1 C1.34 2.65 0.68 4.3 0 6 C-1.32 5.34 -2.64 4.68 -4 4 C-2.68 2.68 -1.36 1.36 0 0 Z " fill="#009DA0" transform="translate(488,99)"/>
</svg>
